# xmcd
#
# Track frame offsets:
#	150
#	9058
#	20008
#	33258
#	43688
#	61278
#	77695
#	91795
#	103268
#	122128
#	132763
#
# Disc length: 1897
#
# Revision: 4
# Processed by: cddbd v1.5.1PL0 Copyright (c) Steve Scherf et al.
# Submitted via: dBpowerAMP V4.0
# Normalized: r3:TSWAP
#
DISCID=7f07670b
DTITLE=Various Artist - A Merry Country Christmas
DYEAR=1900
DGENRE=Country
TTITLE0=Donna Fargo - Rockin' Around the Christmas Tree
TTITLE1=Skeeter Davis - Rudolph the Red Nosed Reindeer
TTITLE2=Joe Stampley - Please Come Home For Christmas
TTITLE3=Eddy Raven - Stille Nacht, heilige Nacht (Silent Night)
TTITLE4=Jeannie C Riley - Joy to the World (theme by Handel)
TTITLE5=Jack Greene - O Come, All Ye Faithful (Adeste fidelis)
TTITLE6=Joe Stampley - White Christmas
TTITLE7=Skeeter Davis - Santa Claus Is Coming To Town
TTITLE8=Eddy Raven - Have Yourself A Merry Little Christmas
TTITLE9=Jeannie C Riley - Away In A Manger
TTITLE10=Joe Stampley - Jingle Bell Rock
EXTD=
EXTT0=
EXTT1=
EXTT2=
EXTT3=
EXTT4=
EXTT5=
EXTT6=
EXTT7=
EXTT8=
EXTT9=
EXTT10=
PLAYORDER=
